<svg width="43" height="42" viewBox="0 0 43 42" fill="none" xmlns="http://www.w3.org/2000/svg">
<path d="M14.7147 9.07115C14.8351 8.95113 14.9779 8.85606 15.1351 8.79137C15.2923 8.72668 15.4607 8.69365 15.6306 8.69417L32.0673 8.81198C32.2378 8.8125 32.4064 8.84677 32.5636 8.91282C32.7208 8.97886 32.8633 9.07537 32.983 9.19678C33.1027 9.31819 33.1971 9.4621 33.2609 9.6202C33.3247 9.7783 33.3566 9.94746 33.3546 10.1179L33.2368 26.5546C33.2356 26.7249 33.2009 26.8932 33.1346 27.0501C33.0683 27.2069 32.9718 27.3492 32.8505 27.4687C32.7292 27.5883 32.5856 27.6828 32.4278 27.7468C32.27 27.8108 32.1012 27.8432 31.9309 27.842C31.7606 27.8407 31.5922 27.806 31.4354 27.7397C31.2785 27.6734 31.1363 27.5769 31.0167 27.4556C30.8972 27.3343 30.8027 27.1907 30.7387 27.0329C30.6746 26.8751 30.6423 26.7063 30.6435 26.536L30.7612 11.387L15.612 11.2875C15.4416 11.287 15.2729 11.2527 15.1157 11.1867C14.9585 11.1206 14.816 11.0241 14.6963 10.9027C14.5766 10.7813 14.4822 10.6374 14.4184 10.4793C14.3546 10.3212 14.3227 10.152 14.3247 9.98155C14.3266 9.8116 14.362 9.64369 14.429 9.48747C14.4959 9.33124 14.593 9.18976 14.7147 9.07115Z" fill="white"/>
<path d="M9.07928 30.9477L31.1519 9.18929C31.3958 8.94884 31.7252 8.81514 32.0677 8.8176C32.4102 8.82005 32.7377 8.95846 32.9782 9.20238C33.2186 9.4463 33.3523 9.77574 33.3499 10.1182C33.3474 10.4607 33.209 10.7882 32.9651 11.0287L10.8925 32.7871C10.6486 33.0276 10.3191 33.1613 9.97662 33.1588C9.63412 33.1564 9.30663 33.018 9.06619 32.774C8.82574 32.5301 8.69204 32.2007 8.69449 31.8582C8.69695 31.5157 8.83536 31.1882 9.07928 30.9477Z" fill="white"/>
</svg>
