<svg width="45" height="45" viewBox="0 0 45 45" fill="none" xmlns="http://www.w3.org/2000/svg">
<path d="M17.4745 13.2241C17.5646 13.1342 17.6716 13.063 17.7894 13.0145C17.9071 12.9661 18.0333 12.9413 18.1606 12.9417L30.4743 13.03C30.6021 13.0304 30.7284 13.056 30.8462 13.1055C30.9639 13.155 31.0707 13.2273 31.1604 13.3183C31.25 13.4092 31.3208 13.517 31.3686 13.6355C31.4164 13.7539 31.4402 13.8806 31.4388 14.0083L31.3505 26.3221C31.3496 26.4496 31.3236 26.5758 31.2739 26.6933C31.2243 26.8108 31.1519 26.9174 31.0611 27.0069C30.9702 27.0965 30.8626 27.1673 30.7444 27.2152C30.6262 27.2632 30.4997 27.2874 30.3722 27.2865C30.2446 27.2856 30.1185 27.2596 30.0009 27.2099C29.8834 27.1603 29.7769 27.0879 29.6873 26.9971C29.5977 26.9062 29.527 26.7986 29.479 26.6804C29.431 26.5622 29.4068 26.4357 29.4077 26.3081L29.4959 14.959L18.1467 14.8845C18.019 14.8842 17.8926 14.8585 17.7748 14.809C17.6571 14.7595 17.5503 14.6872 17.4607 14.5963C17.371 14.5053 17.3002 14.3975 17.2524 14.2791C17.2047 14.1606 17.1808 14.0339 17.1822 13.9062C17.1837 13.7788 17.2102 13.6531 17.2604 13.536C17.3105 13.419 17.3833 13.313 17.4745 13.2241Z" fill="white"/>
<path d="M13.2526 29.613L29.7886 13.3124C29.9713 13.1322 30.2181 13.0321 30.4747 13.0339C30.7313 13.0357 30.9766 13.1394 31.1567 13.3222C31.3369 13.5049 31.437 13.7517 31.4352 14.0083C31.4334 14.2649 31.3297 14.5102 31.1469 14.6904L14.611 30.991C14.4282 31.1711 14.1814 31.2713 13.9248 31.2695C13.6683 31.2676 13.4229 31.1639 13.2428 30.9812C13.0626 30.7985 12.9625 30.5516 12.9643 30.2951C12.9662 30.0385 13.0699 29.7931 13.2526 29.613Z" fill="white"/>
</svg>
