<svg width="21" height="21" viewBox="0 0 21 21" fill="none" xmlns="http://www.w3.org/2000/svg">
<path d="M20.4219 17.6394L13.2825 10.5L20.4219 3.3606C21.1927 2.58981 21.1927 1.34889 20.4219 0.578095C19.6511 -0.192698 18.4102 -0.192698 17.6394 0.578095L10.5 7.71749L3.3606 0.578095C2.58981 -0.192698 1.34889 -0.192698 0.578095 0.578095C-0.192698 1.34889 -0.192698 2.58981 0.578095 3.3606L7.71749 10.5L0.578095 17.6394C-0.192698 18.4102 -0.192698 19.6511 0.578095 20.4219C1.34889 21.1927 2.58981 21.1927 3.3606 20.4219L10.5 13.2825L17.6394 20.4219C18.4102 21.1927 19.6511 21.1927 20.4219 20.4219C21.1872 19.6511 21.1872 18.4047 20.4219 17.6394Z" fill="#A91919"/>
</svg>
