<svg width="37" height="36" viewBox="0 0 37 36" fill="none" xmlns="http://www.w3.org/2000/svg">
<path d="M35.0227 29.5298L22.7789 17.5778L35.0227 5.62592C36.3445 4.33555 36.3445 2.25815 35.0227 0.967777C33.7008 -0.322592 31.5727 -0.322592 30.2508 0.967777L18.007 12.9197L5.76328 0.967777C4.44141 -0.322592 2.31328 -0.322592 0.991406 0.967777C-0.330469 2.25815 -0.330469 4.33555 0.991406 5.62592L13.2352 17.5778L0.991406 29.5298C-0.330469 30.8201 -0.330469 32.8975 0.991406 34.1879C2.31328 35.4783 4.44141 35.4783 5.76328 34.1879L18.007 22.236L30.2508 34.1879C31.5727 35.4783 33.7008 35.4783 35.0227 34.1879C36.3352 32.8975 36.3352 30.811 35.0227 29.5298Z" fill="white" fill-opacity="0.9"/>
</svg>
