<svg width="208" height="208" viewBox="0 0 208 208" fill="none" xmlns="http://www.w3.org/2000/svg">
<path d="M93.662 61.2124C81.7866 63.1272 72.4979 72.2815 70.3647 84.1401C69.9112 86.6597 69.8776 90.6237 70.2808 92.7905C71.7085 100.567 76.63 109.89 85.4987 121.681C89.0765 126.435 97.794 137.05 98.1132 137.05C98.2979 137.05 105 129.021 107.939 125.292C110.879 121.547 113.466 118.019 115.716 114.66L117.598 111.872L116.674 111.435C115.33 110.797 113.012 109.218 111.5 107.925C110.224 106.833 108.023 104.347 107.419 103.305C107.251 103.02 107.066 102.785 106.999 102.785C106.932 102.785 106.293 103.087 105.554 103.457C100.297 106.161 94.0651 105.825 89.1772 102.566C87.8167 101.659 85.9522 99.9292 85.0788 98.7534C82.6769 95.4948 81.5011 91.2284 81.9714 87.3987C82.4585 83.3675 83.987 80.2265 86.7921 77.4718C89.8995 74.4315 93.7124 72.8862 98.13 72.8862C100.952 72.8862 104.026 73.6757 106.025 74.9019C106.478 75.1706 106.881 75.4058 106.915 75.4058C106.948 75.4058 107.351 74.9019 107.788 74.2636C109.434 71.9792 112.642 69.0229 115.128 67.5112C115.75 67.1417 115.767 67.1249 115.464 66.8226C114.792 66.1675 112.206 64.5718 110.459 63.7319C108.309 62.6905 106.125 61.9347 103.858 61.4476C101.691 60.9772 95.9296 60.8429 93.662 61.2124Z" fill="white"/>
<path d="M125.828 66.7722C120.587 67.4273 116.002 69.6109 112.374 73.2222C109.081 76.4976 107.049 80.2937 106.142 84.8961C105.705 87.0629 105.688 90.6238 106.075 92.8746C107.536 101.206 113.667 108.093 121.746 110.495C124.702 111.368 128.801 111.603 131.891 111.082C144.724 108.899 152.972 96.2004 149.78 83.5691C147.647 75.1875 140.827 68.7375 132.345 67.0914C130.984 66.8226 126.987 66.6379 125.828 66.7722ZM131.035 72.0633C136.712 72.9199 142.037 77.2367 144.153 82.7125C145.06 85.0473 145.363 86.8949 145.262 89.6832C145.161 92.6562 144.825 94.0672 143.549 96.6539C141.365 101.155 137.334 104.448 132.463 105.758C131.001 106.144 130.447 106.195 128.179 106.211C126.013 106.211 125.324 106.161 124.081 105.842C117.832 104.263 113.079 99.5598 111.349 93.2441C110.811 91.2957 110.811 86.9957 111.349 84.9129C112.861 78.9164 117.463 74.1797 123.392 72.4664C125.845 71.7609 128.213 71.6433 131.035 72.0633Z" fill="white"/>
<path d="M127.223 80.1759L126.752 80.5791L126.702 84.8791C126.652 89.7837 126.702 90.0357 127.811 90.338C128.617 90.5732 135.47 90.5732 136.276 90.338C137.435 90.0357 137.704 88.7255 136.797 88.0033C136.394 87.7009 136.108 87.6673 132.951 87.6673H129.524V84.2072V80.747L129.037 80.2599C128.432 79.6552 127.861 79.6384 127.223 80.1759Z" fill="white"/>
<path d="M136.074 112.88C135.284 113.148 133.974 113.501 133.134 113.652C132.311 113.803 131.606 113.955 131.572 113.971C131.471 114.022 132.412 117.314 132.563 117.465C132.681 117.599 137.972 116.34 138.425 116.054C138.576 115.953 137.82 112.745 137.602 112.51C137.552 112.443 136.863 112.611 136.074 112.88Z" fill="white"/>
<path d="M140.525 118.406C140.257 118.473 138.14 119.027 135.822 119.649C132.379 120.573 131.556 120.858 131.254 121.194C131.035 121.429 130.867 121.732 130.867 121.883C130.867 122.605 135.637 139.889 136.041 140.628C136.629 141.737 137.905 142.828 139.064 143.265C139.837 143.567 140.29 143.618 141.449 143.567C143.734 143.467 145.279 142.509 146.32 140.544C146.791 139.654 146.891 139.267 146.959 138.142C147.026 136.849 146.942 136.462 144.741 128.232C143.482 123.512 142.339 119.43 142.222 119.145C141.936 118.54 141.264 118.238 140.525 118.406Z" fill="white"/>
<path d="M84.5914 129.105C76.6801 130.903 72.0273 133.909 72.0273 137.218C72.0273 141.535 79.8211 145.213 91.4277 146.372C94.3504 146.658 101.288 146.708 104.076 146.456C114.355 145.516 121.914 142.61 123.829 138.864C124.299 137.924 124.299 136.496 123.829 135.555C122.502 132.969 118.588 130.819 112.474 129.307C111.366 129.038 110.089 128.769 109.619 128.719L108.779 128.635L107.687 130.029C105.453 132.851 98.7512 140.745 98.432 140.913C98.2137 141.031 98.0121 141.031 97.7938 140.913C97.441 140.745 92.5027 134.951 89.2945 130.97C87.1613 128.316 87.4637 128.433 84.5914 129.105Z" fill="white"/>
<circle cx="104" cy="104" r="102" stroke="#FFFDFD" stroke-width="4"/>
</svg>
