<svg width="22" height="9" viewBox="0 0 22 9" fill="none" xmlns="http://www.w3.org/2000/svg">
<path d="M21.8953 8.17206C21.9994 7.9268 22.0266 7.65691 21.9735 7.39656C21.9204 7.1362 21.7894 6.89706 21.597 6.70941L14.722 0L12.7778 1.89742L17.3056 6.31624H0V9H20.6248C20.8968 9.00007 21.1626 8.92144 21.3888 8.77407C21.6149 8.6267 21.7912 8.4172 21.8953 8.17206Z" fill="white"/>
<path d="M21.248 7.06738C21.3694 7.18582 21.4505 7.33531 21.4834 7.49609C21.508 7.61688 21.5051 7.74149 21.4746 7.86035L21.4355 7.97656C21.3708 8.12894 21.2603 8.26155 21.1162 8.35547C20.972 8.44947 20.8007 8.50004 20.625 8.5H0.5V6.81641H18.5342L17.6553 5.95801L13.4932 1.89648L14.7217 0.697266L21.248 7.06738Z" stroke="#FCFCFC" stroke-opacity="0.49"/>
</svg>
