<svg width="208" height="208" viewBox="0 0 208 208" fill="none" xmlns="http://www.w3.org/2000/svg">
<path d="M73.3713 61.2575C66.2002 62.6881 60.3872 68.2113 58.5944 75.2739C55.9867 85.4874 62.1981 95.8095 72.5564 98.5078C73.8422 98.8518 74.6752 98.9062 79.7638 98.9605L85.5044 99.051V90.9201C85.5044 81.9018 85.5768 81.268 86.6634 79.0043C88.2751 75.636 91.2993 73.1189 94.7762 72.304C96.243 71.9599 99.0318 71.9599 100.517 72.304C103.849 73.1008 106.964 75.636 108.503 78.8232C109.698 81.2861 109.77 82.0104 109.77 91.0468V99.0329L122.229 98.9786C134.634 98.9062 134.67 98.9062 136.21 98.4896C145.282 95.9725 151.168 88.0045 150.643 78.9138C150.353 74.1149 148.469 69.9317 145.011 66.491C142.131 63.6298 139.035 61.9818 135.268 61.2575C134 61.0221 129.98 60.9858 104.175 61.004C80.5968 61.0221 74.313 61.0764 73.3713 61.2575ZM136.391 73.0283C137.079 73.3905 137.622 74.1149 137.767 74.8393C138.021 76.2336 137.966 76.3061 131.791 82.4994C128.604 85.7228 125.761 88.4754 125.489 88.6202C124.855 88.9462 123.66 88.9462 123.026 88.6202C122.755 88.4754 121.143 86.9542 119.441 85.2157C116.163 81.9199 115.946 81.5758 116.181 80.272C116.326 79.5476 116.869 78.8232 117.557 78.4611C118.173 78.1351 119.404 78.0989 119.966 78.3886C120.183 78.4973 121.234 79.4571 122.32 80.5074L124.258 82.445L128.93 77.8091C131.483 75.2558 133.747 73.0646 133.946 72.9559C134.471 72.6843 135.775 72.7205 136.391 73.0283Z" fill="#FFFEFE"/>
<path d="M95.4807 77.7548C93.706 78.3887 92.3297 79.6744 91.4967 81.431L91.0258 82.4451L90.9715 100.59C90.9534 110.587 90.881 118.754 90.8448 118.754C90.7904 118.754 89.1787 117.432 87.2592 115.838C83.0035 112.253 82.4603 111.963 80.0699 111.963C78.5487 111.963 78.2409 112.017 77.3173 112.488C76.0678 113.122 74.9994 114.19 74.3293 115.494C73.8766 116.381 73.8223 116.671 73.8223 118.229C73.8223 119.858 73.8585 120.039 74.4561 121.198C75.0718 122.43 75.2529 122.575 82.2973 128.478L89.5047 134.509H109.244H128.964V124.277C128.964 117.45 128.892 113.737 128.765 113.104C128.131 110.098 125.542 107.454 122.608 106.82C122.173 106.729 118.063 106.277 113.481 105.806C108.899 105.353 104.97 104.936 104.752 104.882L104.354 104.81L104.3 93.6183L104.245 82.4451L103.756 81.4129C103.123 80.0366 101.873 78.7327 100.587 78.0989C99.7182 77.6643 99.2655 77.5737 97.9073 77.5194C96.7483 77.4832 96.042 77.5375 95.4807 77.7548Z" fill="#FFFEFE"/>
<path d="M90.9762 143.092C91.0305 146.605 91.1211 146.877 92.4068 147.638C93.0044 148 93.3485 148 109.954 148C126.56 148 126.905 148 127.502 147.638C128.788 146.877 128.878 146.605 128.933 143.092L128.987 139.941H109.954H90.9219L90.9762 143.092Z" fill="#FFFEFE"/>
<circle cx="104" cy="104" r="102" stroke="#FFFDFD" stroke-width="4"/>
</svg>
