<svg width="171" height="174" viewBox="0 0 171 174" fill="none" xmlns="http://www.w3.org/2000/svg">
<g clip-path="url(#clip0_117_5429)">
<path d="M80.9139 78.3192C81.0343 78.1992 81.1772 78.1041 81.3343 78.0394C81.4915 77.9747 81.6599 77.9417 81.8298 77.9422L98.2665 78.06C98.437 78.0605 98.6057 78.0948 98.7628 78.1609C98.92 78.2269 99.0625 78.3234 99.1822 78.4448C99.3019 78.5662 99.3964 78.7101 99.4601 78.8682C99.5239 79.0263 99.5558 79.1955 99.5539 79.366L99.4361 95.8026C99.4348 95.9729 99.4001 96.1413 99.3338 96.2981C99.2675 96.455 99.171 96.5972 99.0497 96.7168C98.9284 96.8363 98.7848 96.9308 98.627 96.9949C98.4692 97.0589 98.3004 97.0912 98.1301 97.09C97.9598 97.0888 97.7914 97.054 97.6346 96.9877C97.4777 96.9215 97.3355 96.8249 97.2159 96.7036C97.0964 96.5824 97.0019 96.4387 96.9379 96.281C96.8738 96.1232 96.8415 95.9543 96.8427 95.784L96.9604 80.635L81.8113 80.5356C81.6408 80.535 81.4721 80.5008 81.3149 80.4347C81.1577 80.3687 81.0152 80.2722 80.8955 80.1507C80.7758 80.0293 80.6814 79.8854 80.6176 79.7273C80.5538 79.5692 80.522 79.4001 80.5239 79.2296C80.5258 79.0596 80.5612 78.8917 80.6282 78.7355C80.6951 78.5793 80.7922 78.4378 80.9139 78.3192Z" fill="white"/>
<path d="M75.2785 100.196L97.3511 78.4373C97.595 78.1969 97.9244 78.0632 98.2669 78.0656C98.6094 78.0681 98.9369 78.2065 99.1774 78.4504C99.4178 78.6943 99.5515 79.0238 99.5491 79.3663C99.5466 79.7088 99.4082 80.0363 99.1643 80.2767L77.0917 102.035C76.8478 102.276 76.5183 102.409 76.1758 102.407C75.8333 102.404 75.5059 102.266 75.2654 102.022C75.025 101.778 74.8913 101.449 74.8937 101.106C74.8962 100.764 75.0346 100.436 75.2785 100.196Z" fill="white"/>
</g>
<defs>
<clipPath id="clip0_117_5429">
<rect width="41.3254" height="41.3254" fill="white" transform="translate(116.441 90.4453) rotate(135.411)"/>
</clipPath>
</defs>
</svg>
