<svg width="33" height="33" viewBox="0 0 33 33" fill="none" xmlns="http://www.w3.org/2000/svg">
<circle cx="16.5" cy="16.5" r="16.5" fill="#A91919"/>
<path d="M13.5677 15.5215C14.5877 17.526 16.2275 19.1658 18.2356 20.1858L19.794 18.624C19.9887 18.4292 20.2685 18.3725 20.5129 18.4504C21.3062 18.7125 22.1598 18.8542 23.0417 18.8542C23.4348 18.8542 23.75 19.1694 23.75 19.5625V22.0417C23.75 22.4348 23.4348 22.75 23.0417 22.75C16.3904 22.75 11 17.3596 11 10.7083C11 10.3152 11.3187 10 11.7083 10H14.1875C14.5806 10 14.8958 10.3152 14.8958 10.7083C14.8958 11.5902 15.0375 12.4438 15.2996 13.2371C15.3775 13.4815 15.3208 13.7612 15.126 13.956L13.5677 15.5215Z" fill="#FBF7F7"/>
</svg>
