<svg width="54" height="54" viewBox="0 0 54 54" fill="none" xmlns="http://www.w3.org/2000/svg">
<g opacity="0.84">
<path d="M19.1208 24.7307C19.1202 24.6252 19.1404 24.5207 19.1803 24.423C19.2202 24.3254 19.2789 24.2366 19.3532 24.1617L26.5659 16.949C26.6404 16.8739 26.7291 16.8142 26.8267 16.7735C26.9244 16.7329 27.0291 16.7119 27.1349 16.7119C27.2407 16.7119 27.3455 16.7329 27.4431 16.7735C27.5408 16.8142 27.6294 16.8739 27.7039 16.949L34.9167 24.1617C34.9914 24.2364 35.0507 24.3251 35.0911 24.4228C35.1315 24.5204 35.1523 24.625 35.1523 24.7307C35.1523 24.8364 35.1315 24.941 35.0911 25.0386C35.0506 25.1363 34.9914 25.225 34.9167 25.2997C34.8419 25.3744 34.7532 25.4337 34.6556 25.4741C34.558 25.5146 34.4533 25.5354 34.3477 25.5354C34.242 25.5354 34.1373 25.5146 34.0397 25.4741C33.9421 25.4337 33.8534 25.3744 33.7786 25.2997L27.1349 18.648L20.4912 25.2997C20.4167 25.3748 20.3281 25.4344 20.2304 25.4751C20.1328 25.5158 20.028 25.5368 19.9222 25.5368C19.8164 25.5368 19.7117 25.5158 19.614 25.4751C19.5163 25.4344 19.4277 25.3748 19.3532 25.2997C19.2789 25.2248 19.2202 25.136 19.1803 25.0384C19.1404 24.9407 19.1202 24.8362 19.1208 24.7307Z" fill="white"/>
<path d="M26.3327 36.7521L26.3327 17.5182C26.3327 17.3057 26.4172 17.1018 26.5674 16.9515C26.7177 16.8012 26.9216 16.7168 27.1341 16.7168C27.3467 16.7168 27.5505 16.8012 27.7008 16.9515C27.8511 17.1018 27.9355 17.3057 27.9355 17.5182L27.9355 36.7521C27.9355 36.9647 27.8511 37.1685 27.7008 37.3188C27.5505 37.4691 27.3467 37.5535 27.1341 37.5535C26.9216 37.5535 26.7177 37.4691 26.5674 37.3188C26.4172 37.1685 26.3327 36.9647 26.3327 36.7521Z" fill="white"/>
</g>
<circle cx="27" cy="27" r="26.5" stroke="white" stroke-opacity="0.39"/>
</svg>
