<svg width="27" height="27" viewBox="0 0 27 27" fill="none" xmlns="http://www.w3.org/2000/svg">
<g opacity="0.88">
<path d="M23.0625 10.1638C21.6836 6.21103 17.9229 3.375 13.5 3.375C9.52456 3.375 6.08425 5.66613 4.42746 9C4.24095 9.37532 4.07703 9.76385 3.9375 10.1638M23.0625 10.1638C23.4269 11.2085 23.625 12.3311 23.625 13.5C23.625 14.6689 23.4269 15.7915 23.0625 16.8362M23.0625 10.1638H3.9375M3.9375 10.1638C3.57308 11.2085 3.375 12.3311 3.375 13.5C3.375 14.6689 3.57308 15.7915 3.9375 16.8362M23.0625 16.8362C21.6836 20.789 17.9229 23.625 13.5 23.625C9.07702 23.625 5.31642 20.789 3.9375 16.8362M23.0625 16.8362H3.9375" stroke="white" stroke-width="2" stroke-linecap="round" stroke-linejoin="round"/>
<path d="M13.5001 23.625C19.092 18.0331 19.092 8.96688 13.5001 3.375C7.90818 8.96688 7.90818 18.0331 13.5001 23.625Z" stroke="white" stroke-width="2" stroke-linecap="round" stroke-linejoin="round"/>
</g>
</svg>
