<svg width="27" height="27" viewBox="0 0 27 27" fill="none" xmlns="http://www.w3.org/2000/svg">
<path d="M3.375 8.4375H23.625C24.5565 8.4375 25.3125 7.6815 25.3125 6.75C25.3125 5.8185 24.5565 5.0625 23.625 5.0625H3.375C2.4435 5.0625 1.6875 5.8185 1.6875 6.75C1.6875 7.6815 2.4435 8.4375 3.375 8.4375ZM23.625 11.8125H3.375C2.4435 11.8125 1.6875 12.5685 1.6875 13.5C1.6875 14.4315 2.4435 15.1875 3.375 15.1875H23.625C24.5565 15.1875 25.3125 14.4315 25.3125 13.5C25.3125 12.5685 24.5565 11.8125 23.625 11.8125ZM23.625 18.5625H3.375C2.4435 18.5625 1.6875 19.3185 1.6875 20.25C1.6875 21.1815 2.4435 21.9375 3.375 21.9375H23.625C24.5565 21.9375 25.3125 21.1815 25.3125 20.25C25.3125 19.3185 24.5565 18.5625 23.625 18.5625Z" fill="#A91919"/>
</svg>
