<svg width="52" height="52" viewBox="0 0 52 52" fill="none" xmlns="http://www.w3.org/2000/svg">
<circle cx="26" cy="26" r="26" fill="#A91919"/>
<g opacity="0.85">
<path d="M26.0012 18.7178C22.0496 18.7178 18.7754 21.9355 18.7754 25.9436C18.7754 29.9516 21.9931 33.1694 26.0012 33.1694C30.0093 33.1694 33.227 29.8952 33.227 25.9436C33.227 21.992 29.9528 18.7178 26.0012 18.7178ZM26.0012 30.5726C23.4609 30.5726 21.3722 28.4839 21.3722 25.9436C21.3722 23.4033 23.4609 21.3145 26.0012 21.3145C28.5415 21.3145 30.6302 23.4033 30.6302 25.9436C30.6302 28.4839 28.5415 30.5726 26.0012 30.5726Z" fill="#EEF5FF"/>
<path d="M33.5082 20.1853C34.4123 20.1853 35.1453 19.4524 35.1453 18.5482C35.1453 17.6441 34.4123 16.9111 33.5082 16.9111C32.604 16.9111 31.8711 17.6441 31.8711 18.5482C31.8711 19.4524 32.604 20.1853 33.5082 20.1853Z" fill="#EEF5FF"/>
<path d="M37.7419 14.3145C36.2742 12.7903 34.1855 12 31.8145 12H20.1855C15.2742 12 12 15.2742 12 20.1855V31.7581C12 34.1855 12.7903 36.2742 14.371 37.7984C15.8952 39.2661 17.9274 40 20.2419 40H31.7581C34.1855 40 36.2177 39.2097 37.6855 37.7984C39.2097 36.3306 40 34.2419 40 31.8145V20.1855C40 17.8145 39.2097 15.7823 37.7419 14.3145ZM37.5161 31.8145C37.5161 33.5645 36.8952 34.9758 35.879 35.9355C34.8629 36.8952 33.4516 37.4032 31.7581 37.4032H20.2419C18.5484 37.4032 17.1371 36.8952 16.121 35.9355C15.1048 34.9194 14.5968 33.5081 14.5968 31.7581V20.1855C14.5968 18.4919 15.1048 17.0806 16.121 16.0645C17.0806 15.1048 18.5484 14.5968 20.2419 14.5968H31.871C33.5645 14.5968 34.9758 15.1048 35.9919 16.121C36.9516 17.1371 37.5161 18.5484 37.5161 20.1855V31.8145Z" fill="#EEF5FF"/>
</g>
</svg>
