<svg width="52" height="52" viewBox="0 0 52 52" fill="none" xmlns="http://www.w3.org/2000/svg">
<circle cx="26" cy="26" r="26" fill="#A91919"/>
<g opacity="0.85">
<path d="M20.5189 17.2084C20.5186 17.7609 20.29 18.2907 19.8835 18.6812C19.477 19.0717 18.9258 19.291 18.3511 19.2907C17.7765 19.2904 17.2255 19.0707 16.8194 18.6798C16.4133 18.2889 16.1853 17.7588 16.1855 17.2063C16.1858 16.6538 16.4144 16.124 16.8209 15.7335C17.2274 15.343 17.7787 15.1237 18.3533 15.124C18.9279 15.1243 19.4789 15.3441 19.885 15.735C20.2912 16.1259 20.5192 16.6559 20.5189 17.2084ZM20.5839 20.8334H16.2505V33.8751H20.5839V20.8334ZM27.4305 20.8334H23.1189V33.8751H27.3872V27.0313C27.3872 23.2188 32.5547 22.8646 32.5547 27.0313V33.8751H36.8339V25.6146C36.8339 19.1876 29.1855 19.4271 27.3872 22.5834L27.4305 20.8334Z" fill="#EFEAEA"/>
</g>
</svg>
