<svg width="13" height="19" viewBox="0 0 13 19" fill="none" xmlns="http://www.w3.org/2000/svg">
<path d="M3.61445 0.0576186C3.49941 0.0873061 3.34355 0.146681 3.26191 0.191212C3.05781 0.306251 2.77578 0.584572 2.66816 0.781251C2.47891 1.11524 2.46777 1.24883 2.46777 3.21563V5.04141L1.75527 5.05625C1.1207 5.07109 1.01309 5.08594 0.816406 5.16016C0.538086 5.26777 0.252344 5.53125 0.107617 5.81699L0 6.03223V11.376V16.7197L0.107617 16.9498C0.308008 17.3877 0.708789 17.666 1.19121 17.6957L1.46211 17.7143L1.47324 18.2672L1.48437 18.8238L1.58828 18.9129C1.69219 19.002 1.69961 19.002 2.52344 19.002C3.3918 19.002 3.50312 18.9834 3.57734 18.8387C3.59961 18.7979 3.62187 18.5307 3.62559 18.2412L3.63672 17.7217H6.03027H8.42383L8.43496 18.2412C8.43867 18.5307 8.46094 18.7979 8.4832 18.8387C8.55742 18.9834 8.66875 19.002 9.53711 19.002C10.3609 19.002 10.3684 19.002 10.4723 18.9129L10.5762 18.8238L10.5873 18.2672L10.5984 17.7143L10.8693 17.6957C11.3518 17.666 11.7525 17.3877 11.9529 16.9498L12.0605 16.7197V11.376V6.03223L11.9529 5.81699C11.8082 5.53125 11.5225 5.26777 11.2441 5.16016C11.0475 5.08594 10.9398 5.07109 10.309 5.05625L9.59277 5.04141V3.23047C9.59277 2.15801 9.57793 1.3416 9.55566 1.22285C9.44805 0.662501 8.98789 0.187501 8.42383 0.0539077C8.10469 -0.0203111 3.92617 -0.0166001 3.61445 0.0576186ZM8.34219 1.08926C8.57969 1.24512 8.57227 1.1709 8.5834 3.20078L8.59453 5.04883H6.03027H3.46973V3.24902C3.46973 1.33789 3.47344 1.29336 3.64785 1.14121C3.68867 1.1041 3.77031 1.05957 3.82598 1.04102C3.88535 1.02246 4.90215 1.01133 6.08594 1.01504C8.075 1.02246 8.24941 1.02617 8.34219 1.08926Z" fill="white"/>
</svg>
