<svg width="19" height="19" viewBox="0 0 19 19" fill="none" xmlns="http://www.w3.org/2000/svg">
<path d="M17.8223 9.49999L18.8723 7.68521C18.9985 7.46686 19.0329 7.20734 18.9678 6.9637C18.9027 6.72005 18.7435 6.51224 18.5252 6.38595L16.7086 5.33588V3.24337C16.7086 2.99111 16.6084 2.74918 16.43 2.57081C16.2516 2.39244 16.0097 2.29223 15.7574 2.29223H13.666L12.6169 0.476496C12.4902 0.258605 12.2828 0.0993734 12.0395 0.0332638C11.9189 0.000559645 11.793 -0.00787328 11.6691 0.00845383C11.5451 0.0247809 11.4257 0.0655434 11.3177 0.128378L9.50103 1.17844L7.68441 0.127427C7.46596 0.00130323 7.20635 -0.0328757 6.9627 0.0324087C6.71905 0.0976931 6.51132 0.257093 6.38519 0.475545L5.33516 2.29223H3.24366C2.99141 2.29223 2.74949 2.39244 2.57113 2.57081C2.39276 2.74918 2.29255 2.99111 2.29255 3.24337V5.33493L0.475927 6.385C0.367531 6.44735 0.272523 6.5305 0.196362 6.62969C0.120201 6.72887 0.0643872 6.84213 0.0321282 6.96295C-0.000130864 7.08377 -0.00819956 7.20977 0.00838563 7.33372C0.0249708 7.45767 0.0658829 7.57712 0.128772 7.68521L1.1788 9.49999L0.128772 11.3148C0.00321405 11.5333 -0.0308517 11.7926 0.0340012 12.0362C0.0988542 12.2798 0.257366 12.4878 0.474976 12.615L2.2916 13.665V15.7566C2.2916 16.0089 2.39181 16.2508 2.57017 16.4292C2.74854 16.6075 2.99046 16.7077 3.24271 16.7077H5.33516L6.38519 18.5244C6.46939 18.6684 6.58962 18.7879 6.73403 18.8713C6.87845 18.9547 7.04209 18.999 7.20885 19C7.37434 19 7.53889 18.9562 7.68536 18.8716L9.50008 17.8215L11.3167 18.8716C11.5351 18.9975 11.7945 19.0317 12.0381 18.9666C12.2817 18.9016 12.4895 18.7425 12.6159 18.5244L13.665 16.7077H15.7565C16.0087 16.7077 16.2507 16.6075 16.429 16.4292C16.6074 16.2508 16.7076 16.0089 16.7076 15.7566V13.665L18.5242 12.615C18.6324 12.5524 18.7273 12.4692 18.8033 12.37C18.8793 12.2708 18.935 12.1576 18.9673 12.0368C18.9995 11.9161 19.0076 11.7901 18.9912 11.6663C18.9747 11.5424 18.934 11.4229 18.8714 11.3148L17.8223 9.49999ZM7.1223 4.73476C7.5008 4.73489 7.86375 4.88537 8.1313 5.15311C8.39886 5.42085 8.54909 5.78391 8.54897 6.16243C8.54884 6.54094 8.39836 6.9039 8.13063 7.17146C7.8629 7.43902 7.49985 7.58927 7.12135 7.58914C6.74285 7.58902 6.3799 7.43853 6.11234 7.17079C5.84479 6.90305 5.69455 6.53999 5.69468 6.16148C5.69481 5.78296 5.84529 5.42 6.11302 5.15244C6.38075 4.88488 6.7438 4.73464 7.1223 4.73476ZM7.40763 13.8657L5.88585 12.7253L11.5925 5.11617L13.1143 6.25659L7.40763 13.8657ZM11.8779 14.2462C11.6904 14.2461 11.5049 14.2091 11.3318 14.1374C11.1586 14.0656 11.0013 13.9604 10.8689 13.8278C10.7364 13.6953 10.6313 13.5379 10.5596 13.3647C10.488 13.1915 10.4511 13.0059 10.4512 12.8185C10.4513 12.6311 10.4882 12.4455 10.56 12.2724C10.6318 12.0993 10.737 11.942 10.8695 11.8095C11.0021 11.677 11.1595 11.5719 11.3326 11.5003C11.5058 11.4286 11.6914 11.3917 11.8788 11.3918C12.2573 11.3919 12.6203 11.5424 12.8878 11.8102C13.1554 12.0779 13.3056 12.441 13.3055 12.8195C13.3054 13.198 13.1549 13.5609 12.8871 13.8285C12.6194 14.0961 12.2564 14.2463 11.8779 14.2462Z" fill="white"/>
</svg>
