<svg width="53" height="53" viewBox="0 0 53 53" fill="none" xmlns="http://www.w3.org/2000/svg">
<circle cx="26.5" cy="26.5" r="26.5" fill="#F6EFEF"/>
<path d="M40.6691 26.8143L42.4171 23.7933C42.6272 23.4298 42.6843 22.9978 42.576 22.5922C42.4676 22.1866 42.2026 21.8407 41.8392 21.6305L38.815 19.8825V16.3991C38.815 15.9792 38.6482 15.5765 38.3513 15.2795C38.0544 14.9826 37.6516 14.8158 37.2317 14.8158H33.75L32.0035 11.7932C31.7926 11.4305 31.4473 11.1654 31.0424 11.0554C30.8416 11.0009 30.632 10.9869 30.4257 11.0141C30.2194 11.0413 30.0206 11.1091 29.8407 11.2137L26.8165 12.9617L23.7924 11.2121C23.4287 11.0022 22.9965 10.9453 22.5909 11.0539C22.1853 11.1626 21.8395 11.428 21.6295 11.7916L19.8815 14.8158H16.3998C15.9799 14.8158 15.5771 14.9826 15.2802 15.2795C14.9833 15.5765 14.8165 15.9792 14.8165 16.3991V19.8809L11.7923 21.6289C11.6118 21.7327 11.4537 21.8711 11.3269 22.0362C11.2001 22.2013 11.1072 22.3898 11.0535 22.591C10.9998 22.7921 10.9864 23.0019 11.014 23.2082C11.0416 23.4145 11.1097 23.6134 11.2144 23.7933L12.9624 26.8143L11.2144 29.8353C11.0054 30.1991 10.9486 30.6308 11.0566 31.0362C11.1646 31.4417 11.4284 31.788 11.7907 31.9997L14.8149 33.7477V37.2295C14.8149 37.6494 14.9817 38.0521 15.2786 38.349C15.5755 38.646 15.9783 38.8128 16.3982 38.8128H19.8815L21.6295 41.837C21.7697 42.0766 21.9698 42.2756 22.2103 42.4144C22.4507 42.5532 22.7231 42.627 23.0007 42.6286C23.2762 42.6286 23.5501 42.5558 23.794 42.4149L26.8149 40.6669L29.8391 42.4149C30.2027 42.6245 30.6346 42.6814 31.04 42.5731C31.4455 42.4648 31.7914 42.2 32.0019 41.837L33.7484 38.8128H37.2301C37.65 38.8128 38.0528 38.646 38.3497 38.349C38.6466 38.0521 38.8135 37.6494 38.8135 37.2295V33.7477L41.8376 31.9997C42.0178 31.8956 42.1756 31.757 42.3022 31.5919C42.4287 31.4267 42.5215 31.2383 42.5751 31.0373C42.6288 30.8363 42.6423 30.6266 42.615 30.4204C42.5876 30.2142 42.5198 30.0153 42.4155 29.8353L40.6691 26.8143ZM22.8566 18.8818C23.4867 18.882 24.0909 19.1325 24.5363 19.5782C24.9817 20.0239 25.2318 20.6283 25.2316 21.2584C25.2314 21.8885 24.9809 22.4927 24.5352 22.9381C24.0895 23.3835 23.4851 23.6336 22.855 23.6334C22.2249 23.6332 21.6207 23.3827 21.1753 22.937C20.7299 22.4913 20.4798 21.8869 20.48 21.2568C20.4802 20.6267 20.7308 20.0225 21.1764 19.5771C21.6221 19.1317 22.2265 18.8816 22.8566 18.8818ZM23.3316 34.0818L20.7983 32.1834L30.2983 19.5167L32.8316 21.4151L23.3316 34.0818ZM30.7733 34.7151C30.4613 34.715 30.1524 34.6535 29.8642 34.534C29.576 34.4145 29.3141 34.2394 29.0936 34.0187C28.873 33.798 28.6981 33.5361 28.5788 33.2478C28.4595 32.9595 28.3982 32.6505 28.3983 32.3385C28.3984 32.0265 28.4599 31.7176 28.5794 31.4294C28.6989 31.1412 28.874 30.8794 29.0947 30.6588C29.3154 30.4383 29.5773 30.2634 29.8656 30.1441C30.1539 30.0248 30.4629 29.9634 30.7749 29.9635C31.405 29.9638 32.0092 30.2143 32.4546 30.66C32.9 31.1056 33.1501 31.71 33.1499 32.3401C33.1497 32.9702 32.8991 33.5744 32.4535 34.0198C32.0078 34.4652 31.4034 34.7153 30.7733 34.7151Z" fill="#D7A606"/>
</svg>
