<svg width="15" height="16" viewBox="0 0 15 16" fill="none" xmlns="http://www.w3.org/2000/svg">
<path d="M6.59576 0.0103665C5.58897 0.135433 4.7479 0.545026 4.04752 1.25478C3.42532 1.88324 3.06888 2.55235 2.8844 3.43094C2.80937 3.79988 2.80937 4.62532 2.8844 4.99427C3.06888 5.87286 3.42844 6.5451 4.04752 7.17043C4.67598 7.80514 5.36385 8.17722 6.25182 8.36169C6.61764 8.43673 7.43996 8.43673 7.82141 8.36169C8.66561 8.19285 9.36598 7.81765 9.99132 7.19857C10.6229 6.57636 10.9981 5.88224 11.1826 4.99427C11.2576 4.62532 11.2576 3.79988 11.1826 3.43094C11.0606 2.85251 10.8386 2.31785 10.5197 1.83634C10.3227 1.53931 9.71304 0.926479 9.42226 0.735753C8.91887 0.4012 8.37483 0.172953 7.84017 0.0697732C7.58691 0.0197465 6.81462 -0.0177735 6.59576 0.0103665Z" fill="#FFFAFA"/>
<path d="M5.35355 9.42345C3.60261 9.63606 2.02365 10.6272 1.00748 12.1562C0.410288 13.0504 0.0694815 14.1072 0.0100748 15.2359C-0.00868518 15.583 -0.00555852 15.6236 0.0569748 15.7456C0.100748 15.8331 0.163281 15.8956 0.247701 15.9394C0.369641 16.002 0.416541 16.002 7.03257 16.002C13.6486 16.002 13.6955 16.002 13.8174 15.9394C13.9018 15.8956 13.9644 15.8331 14.0082 15.7456C14.0707 15.6236 14.0738 15.583 14.0551 15.2359C13.9738 13.6945 13.3859 12.3438 12.3166 11.2369C11.3036 10.1895 9.99664 9.55164 8.56776 9.40469C8.09563 9.35779 5.78815 9.3703 5.35355 9.42345Z" fill="#FFFAFA"/>
</svg>
