<svg width="208" height="208" viewBox="0 0 208 208" fill="none" xmlns="http://www.w3.org/2000/svg">
<path d="M78.7971 61.2523C78.0917 61.5546 77.3526 62.2265 76.9831 62.9152C76.7311 63.3519 76.6975 64.1749 76.6471 68.9956C76.5967 74.8409 76.6471 75.4288 77.3358 76.4534C77.9741 77.3941 78.8643 77.7972 80.1577 77.7468C81.4174 77.6796 82.1733 77.2765 82.8452 76.3023L83.2483 75.7144L83.2987 69.8187C83.3323 65.9218 83.2987 63.7046 83.1643 63.3015C82.6436 61.5042 80.5104 60.5132 78.7971 61.2523Z" fill="white"/>
<path d="M126.248 61.3028C125.425 61.6723 124.72 62.4618 124.484 63.3016C124.35 63.7047 124.316 65.9219 124.35 69.8188L124.4 75.7145L124.804 76.3024C125.459 77.243 126.214 77.6797 127.424 77.7469C128.936 77.8477 129.893 77.3102 130.598 76.0168C130.934 75.3618 130.951 75.1602 130.951 69.55C130.951 66.3586 130.901 63.5536 130.817 63.3016C130.632 62.6297 129.708 61.6555 128.936 61.3028C128.079 60.8996 127.105 60.8996 126.248 61.3028Z" fill="white"/>
<path d="M68.9035 68.8107C66.552 69.449 64.2172 71.2799 63.1086 73.3963C62.0336 75.4455 62 75.7646 62 83.0209V89.5381H103.824H145.648V83.0209C145.648 75.7814 145.615 75.4455 144.557 73.4131C143.515 71.4479 141.6 69.785 139.467 69.0123C138.678 68.71 138.006 68.6428 135.621 68.5756L132.715 68.5084V71.4311C132.715 74.7232 132.53 76.0334 131.942 77.058C129.893 80.5854 124.4 80.1486 122.973 76.3357C122.67 75.5127 122.637 75.0256 122.637 71.9854V68.542H103.824H85.0117V71.9854C85.0117 75.0256 84.9781 75.5127 84.6758 76.3357C83.9703 78.2002 82.1395 79.46 80.1238 79.46C78.0074 79.46 76.3949 78.4857 75.4879 76.6381C75.0176 75.6975 75.0176 75.6303 74.9672 72.1029L74.9 68.542L72.3637 68.5588C70.7008 68.5588 69.4914 68.6428 68.9035 68.8107Z" fill="white"/>
<path d="M62 113.306V135.394H103.824H145.648V113.306V91.2178H103.824H62V113.306ZM107.503 101.397L110.073 106.604L115.649 107.41C121.511 108.25 121.881 108.351 122.2 109.224C122.284 109.459 122.301 109.846 122.234 110.081C122.183 110.333 120.52 112.063 118.034 114.481L113.953 118.446L114.843 123.686C115.884 129.783 115.918 130.136 115.33 130.69C114.574 131.413 114.171 131.278 108.83 128.44L103.841 125.803L98.9195 128.389C96.2152 129.817 93.8301 131.043 93.6117 131.11C93.1078 131.262 92.3855 130.959 92.0832 130.489C91.7473 129.951 91.8145 129.414 92.8055 123.72L93.6957 118.513L89.5133 114.397C85.5492 110.484 85.3309 110.249 85.3477 109.661C85.3477 109.207 85.4652 108.955 85.818 108.653C86.2547 108.3 86.893 108.166 91.932 107.427L97.5758 106.621L100.146 101.397C102.632 96.3912 102.766 96.1729 103.32 95.9881C103.774 95.8369 104.026 95.8369 104.412 95.9881C104.849 96.1729 105.235 96.8279 107.503 101.397Z" fill="white"/>
<path d="M62 137.913C62 140.147 63.0078 142.482 64.6707 144.145C66.0312 145.488 67.2742 146.211 68.9875 146.647C70.2641 146.983 70.9191 146.983 103.824 146.983C136.696 146.983 137.384 146.983 138.661 146.647C140.441 146.194 141.483 145.589 142.894 144.212C144.657 142.482 145.648 140.197 145.648 137.913V137.073H103.824H62V137.913Z" fill="white"/>
<circle cx="104" cy="104" r="102" stroke="#FFFDFD" stroke-width="4"/>
</svg>
