<svg width="61" height="61" viewBox="0 0 61 61" fill="none" xmlns="http://www.w3.org/2000/svg">
<path d="M27.5812 0.131142C21.8028 0.726845 16.3462 2.93095 11.6878 6.529C10.3653 7.54169 7.5417 10.3653 6.529 11.6878C4.64658 14.1063 2.84756 17.3351 1.83486 20.0753C1.2749 21.6003 0.560059 24.4477 0.286035 26.2706C-0.0237305 28.2722 -0.0237305 32.7161 0.286035 34.7296C0.560059 36.5286 1.2749 39.388 1.84678 40.9368C2.85947 43.689 4.64658 46.8938 6.529 49.3124C7.49404 50.5634 10.2224 53.3155 11.4376 54.2806C13.88 56.1987 17.2993 58.1407 20.0634 59.1534C21.6122 59.7253 24.4716 60.4401 26.2706 60.7142C28.0339 60.9763 32.6089 61.0239 34.253 60.7856C39.9956 59.9636 44.8327 57.9382 49.3124 54.4712C50.5515 53.5181 53.3036 50.8017 54.2806 49.5626C56.1987 47.1321 58.1288 43.7128 59.1534 40.9368C59.7253 39.388 60.4401 36.5286 60.7142 34.7296C60.881 33.6573 60.9286 32.597 60.9286 30.5001C60.9286 28.4032 60.881 27.3429 60.7142 26.2706C60.4401 24.4716 59.7253 21.6122 59.1534 20.0634C58.1169 17.2517 56.2106 13.8919 54.2806 11.4376C53.3394 10.2581 50.7064 7.62509 49.503 6.67196C45.214 3.27645 40.2935 1.14384 34.7892 0.297939C33.288 0.0715714 29.1062 -0.0356522 27.5812 0.131142ZM32.7757 7.38681C43.1052 8.43525 51.4688 16.1556 53.3632 26.3659L53.4704 26.9497L49.3362 26.8901C44.8685 26.8306 44.4634 26.7829 42.4261 26.08C40.4841 25.4128 38.8757 24.3882 37.1243 22.6964C34.8964 20.5518 33.2522 19.8489 30.5001 19.8489C27.7241 19.8489 26.0562 20.5876 23.7567 22.8155C22.1364 24.3763 20.397 25.4724 18.4669 26.1276C16.5368 26.7829 16.0841 26.8306 11.664 26.8901L7.52979 26.9497L7.69658 26.0323C8.24463 23.1849 9.48369 20.1706 11.1636 17.6686C15.953 10.4964 24.2929 6.529 32.7757 7.38681ZM31.5962 27.0569C32.6327 27.2714 33.4786 27.7479 34.253 28.5224C37.3269 31.6081 35.6589 36.8145 31.346 37.5532C29.6661 37.8392 28.0101 37.303 26.7472 36.0401C24.6265 33.9433 24.6265 30.6192 26.7472 28.5343C28.0935 27.1999 29.8091 26.6876 31.5962 27.0569ZM17.0968 38.006C23.0776 39.5548 26.4731 45.7739 24.5907 51.7429C24.4239 52.2552 24.2095 52.7079 24.1142 52.7436C23.8759 52.827 22.0173 52.1718 20.5519 51.4808C16.7513 49.6817 13.4987 46.8462 11.0563 43.1886C10.2462 41.9614 8.88799 39.2688 8.97139 39.0425C9.04287 38.8399 11.4019 38.0298 12.5337 37.8153C13.7132 37.589 15.8577 37.6724 17.0968 38.006ZM48.2521 37.7796C49.2647 37.9345 51.9454 38.828 52.0288 39.0306C52.0646 39.114 51.7667 39.8526 51.3735 40.6509C49.0503 45.3927 45.1544 49.2528 40.4483 51.4808C38.9829 52.1718 37.1243 52.827 36.886 52.7436C36.6478 52.6483 36.1593 51.0518 35.9806 49.8128C35.1704 44.2847 38.9829 38.9591 44.5587 37.8272C45.5118 37.6366 47.2274 37.6128 48.2521 37.7796Z" fill="white"/>
<path d="M29.6422 30.7502C29.1299 31.0123 28.7129 31.7152 28.7129 32.2871C28.7129 32.8828 29.1299 33.5619 29.666 33.8359C29.9162 33.967 30.2975 34.0742 30.5 34.0742C31.4055 34.0742 32.2871 33.1926 32.2871 32.2871C32.2871 31.6914 31.8701 31.0123 31.334 30.7383C30.7502 30.4404 30.2141 30.4404 29.6422 30.7502Z" fill="white"/>
</svg>
