<svg width="43" height="43" viewBox="0 0 43 43" fill="none" xmlns="http://www.w3.org/2000/svg">
<path d="M21.5 41.6563C17.5135 41.6563 13.6165 40.4741 10.3018 38.2593C6.98712 36.0445 4.40364 32.8965 2.87806 29.2135C1.35248 25.5304 0.953322 21.4776 1.73106 17.5677C2.50879 13.6578 4.42849 10.0663 7.24739 7.24739C10.0663 4.42849 13.6578 2.50879 17.5677 1.73106C21.4776 0.953322 25.5304 1.35248 29.2135 2.87806C32.8965 4.40364 36.0445 6.98712 38.2593 10.3018C40.4741 13.6165 41.6563 17.5135 41.6563 21.5C41.6563 26.8458 39.5327 31.9726 35.7526 35.7526C31.9726 39.5327 26.8458 41.6563 21.5 41.6563ZM21.5 4.03126C18.045 4.03126 14.6676 5.05578 11.7949 6.97527C8.92217 8.89476 6.68316 11.623 5.36099 14.815C4.03882 18.007 3.69288 21.5194 4.36692 24.908C5.04095 28.2966 6.70469 31.4092 9.14774 33.8523C11.5908 36.2953 14.7034 37.9591 18.092 38.6331C21.4806 39.3071 24.993 38.9612 28.185 37.639C31.377 36.3169 34.1053 34.0778 36.0247 31.2051C37.9442 28.3324 38.9688 24.955 38.9688 21.5C38.9688 16.867 37.1283 12.4238 33.8523 9.14774C30.5763 5.87171 26.133 4.03126 21.5 4.03126Z" fill="white"/>
<path d="M18.3688 29.5625C18.1845 29.5619 18.0024 29.5234 17.8336 29.4495C17.6649 29.3755 17.5131 29.2676 17.3878 29.1325L11.1125 22.4137C10.8981 22.1493 10.792 21.8134 10.8158 21.4738C10.8395 21.1341 10.9912 20.8162 11.2403 20.5842C11.4895 20.3521 11.8173 20.2233 12.1578 20.2237C12.4982 20.224 12.8258 20.3536 13.0744 20.5862L18.3688 26.2434L29.925 13.8675C30.0411 13.7244 30.1853 13.6067 30.3487 13.5217C30.5121 13.4367 30.6913 13.3862 30.8751 13.3734C31.0589 13.3605 31.2433 13.3856 31.417 13.4471C31.5907 13.5085 31.7499 13.605 31.8847 13.7306C32.0195 13.8562 32.127 14.0081 32.2006 14.177C32.2742 14.3459 32.3123 14.5281 32.3125 14.7123C32.3127 14.8965 32.275 15.0788 32.2018 15.2479C32.1286 15.4169 32.0214 15.5691 31.8869 15.695L19.3497 29.1325C19.2244 29.2676 19.0727 29.3755 18.9039 29.4495C18.7352 29.5234 18.553 29.5619 18.3688 29.5625Z" fill="white"/>
</svg>
