<svg width="22" height="22" viewBox="0 0 22 22" fill="none" xmlns="http://www.w3.org/2000/svg">
<g opacity="0.87">
<path d="M20.625 5.5C20.625 5.85183 20.4907 6.20383 20.2222 6.47195L9.22217 17.472C8.95469 17.7418 8.60234 17.875 8.25 17.875C7.89766 17.875 7.54617 17.7407 7.27805 17.4722L1.77805 11.9722C1.50949 11.7047 1.375 11.3523 1.375 11C1.375 10.2145 2.01738 9.625 2.75 9.625C3.10183 9.625 3.45383 9.75928 3.72195 10.0278L8.25 14.5578L18.2789 4.52891C18.5453 4.25949 18.8977 4.125 19.25 4.125C19.9848 4.125 20.625 4.71367 20.625 5.5Z" fill="white"/>
</g>
</svg>
